<svg id="Layer_1" data-name="Layer 1" xmlns="http://www.w3.org/2000/svg" viewBox="0 0 75.46 79.25">
  <defs>
    <style>.cls-1{fill:#2bd098;}</style>
  </defs>
  <title>hover_turkiz</title>
  <path class="cls-1" d="M-140.92,133.71l-33.81.07a4.36,4.36,0,0,0-2.06.51l-12.12,6.55a3.69,3.69,0,0,1-1.78.71h-17.78a3.77,3.77,0,0,0-3.93,3.54v64.32a3.78,3.78,0,0,0,4,3.54H-141a3.78,3.78,0,0,0,4-3.53l0.09-72.17A3.78,3.78,0,0,0-140.92,133.71Zm-39.71,17.62,9-5.49a1.05,1.05,0,0,1,1.37.16l1.79,3.11a1.09,1.09,0,0,1-.32,1.58l-9.61,4.33a0.92,0.92,0,0,1-1.42-.47l-1.11-2.22A0.81,0.81,0,0,1-180.63,151.33ZM-163,167.54a1,1,0,0,1-1,1h-14.33v6.42h11.8a1,1,0,0,1,1,1v5.64a1,1,0,0,1-1,1h-11.8v7h14.33a1,1,0,0,1,1,1v5.64a1,1,0,0,1-1,1h-21.42a1,1,0,0,1-1-1V161.9a1,1,0,0,1,1-1h21.42a1,1,0,0,1,1,1v5.64Z" transform="translate(212.39 -133.71)"/>
</svg>